<svg xmlns="http://www.w3.org/2000/svg" version="1.1" xmlns:xlink="http://www.w3.org/1999/xlink" xmlns:svgjs="http://svgjs.dev/svgjs" width="1500" height="1500" viewBox="0 0 1500 1500"><rect width="1500" height="1500" fill="#000000"></rect><g transform="matrix(0.6666666666666666,0,0,0.6666666666666666,249.39393939393932,662.186302717101)"><svg viewBox="0 0 396 69" data-background-color="#692729" preserveAspectRatio="xMidYMid meet" height="261" width="1500" xmlns="http://www.w3.org/2000/svg" xmlns:xlink="http://www.w3.org/1999/xlink"><g id="tight-bounds" transform="matrix(1,0,0,1,0.24000000000003752,0.32267306045994815)"><svg viewBox="0 0 395.5199999999999 68.35465387908009" height="68.35465387908009" width="395.5199999999999"><g><svg viewBox="0 0 593.5534971052504 102.57924720203013" height="68.35465387908009" width="395.5199999999999"><g><rect width="6.2441661493916465" height="102.57924720203013" x="175.4433462715874" y="0" fill="#ffffff" opacity="1" stroke-width="0" stroke="transparent" fill-opacity="1" class="rect-yte-0" data-fill-palette-color="primary" rx="1%" id="yte-0" data-palette-color="#f2cebe"></rect></g><g transform="matrix(1,0,0,1,198.03349710525035,0.2551722567214654)"><svg viewBox="0 0 395.52 102.0689026885872" height="102.0689026885872" width="395.52"><g id="textblocktransform"><svg viewBox="0 0 395.52 102.0689026885872" height="102.0689026885872" width="395.52" id="textblock"><g><svg viewBox="0 0 395.52 69.24034922766958" height="69.24034922766958" width="395.52"><g transform="matrix(1,0,0,1,0,0)"><svg width="395.52" viewBox="4.64 -37.94 218.10000000000002 38.18" height="69.24034922766958" data-palette-color="#f2cebe"><path d="M4.64 0L4.64-35.99 10.6-35.99 10.6 0 4.64 0ZM25.63-20.21L25.63-16.21 12.6-16.21 12.6-20.21 25.63-20.21ZM12.6-35.99L27.15-35.99 27.15-31.54 12.6-31.54 12.6-35.99ZM38.82-27.54L38.82-12.55Q38.82-10.84 38.96-9.35 39.11-7.86 39.6-6.74 40.09-5.62 41.06-4.93 42.04-4.25 43.65-4.25L43.65-4.25Q44.28-4.25 45.46-4.44 46.63-4.64 47.7-5.08L47.7-5.08 47.7-1.46Q46.43-0.78 44.94-0.27 43.45 0.24 41.99 0.24L41.99 0.24Q40.82 0.24 39.89 0.02 38.96-0.2 38.16-0.66 37.35-1.12 36.62-1.71 35.89-2.29 35.15-3.03L35.15-3.03Q34.32-3.86 33.84-4.96 33.35-6.05 33.13-7.25 32.91-8.45 32.88-9.67 32.86-10.89 32.86-12.06L32.86-12.06 32.86-27.54 38.82-27.54ZM49.7-27.54L55.66-27.54 55.66 0 50.34 0 49.7-2.83 49.7-27.54ZM63.96-27.54L69.23-27.54 69.87-24.76 69.87 0 63.96 0 63.96-27.54ZM84.47-24.51L84.47-24.51Q85.3-23.68 85.76-22.58 86.23-21.48 86.45-20.29 86.66-19.09 86.71-17.87 86.76-16.65 86.76-15.48L86.76-15.48 86.76-0.98 86.76 0 80.81 0 80.81-14.99Q80.81-16.65 80.66-18.16 80.51-19.68 79.98-20.85 79.44-22.02 78.51-22.68 77.58-23.34 75.92-23.34L75.92-23.34Q75.24-23.34 74.09-23.12 72.94-22.9 71.87-22.41L71.87-22.41 71.87-26.17Q73.19-26.86 74.73-27.34 76.26-27.83 77.73-27.83L77.73-27.83Q79.93-27.83 81.44-26.93 82.95-26.03 84.47-24.51ZM111.91-37.94L117.86-37.94 117.86 0 112.25 0 111.91-3.27 111.91-37.94ZM93.16-14.16L93.16-14.16Q93.16-17.97 94.21-20.56 95.26-23.14 96.92-24.76 98.58-26.37 100.6-27.08 102.63-27.78 104.58-27.78L104.58-27.78Q106.1-27.78 107.46-27.44 108.83-27.1 109.9-26.46L109.9-26.46 109.9-21.29Q109.07-22.17 108.05-22.71 107.02-23.24 105.75-23.24L105.75-23.24Q104.24-23.24 103.07-22.49 101.9-21.73 101.09-20.41 100.29-19.09 99.85-17.38 99.41-15.67 99.41-13.72L99.41-13.72Q99.41-11.77 99.89-10.08 100.38-8.4 101.21-7.13 102.04-5.86 103.24-5.13 104.44-4.39 105.85-4.39L105.85-4.39Q108.24-4.39 109.9-6.3L109.9-6.3 109.9-1.22Q108.73-0.59 107.19-0.17 105.66 0.24 103.95 0.24L103.95 0.24Q101.99 0.24 100.11-0.46 98.23-1.17 96.77-2.78L96.77-2.78Q94.91-4.88 94.04-7.98 93.16-11.08 93.16-14.16ZM148.09-25.29L148.09-25.29Q148.09-23.39 147.26-21.36 146.43-19.34 145.06-17.36 143.69-15.38 142.06-13.53 140.42-11.67 138.78-10.01 137.15-8.35 135.71-7.01 134.27-5.66 133.34-4.74L133.34-4.74 148.62-4.74 148.62 0 126.26 0 126.26-5.47Q127.14-6.25 128.7-7.59 130.26-8.94 132.07-10.6 133.88-12.26 135.68-14.14 137.49-16.02 138.98-17.94 140.47-19.87 141.42-21.73 142.37-23.58 142.37-25.24L142.37-25.24Q142.37-26.95 141.76-28.1 141.15-29.25 140.22-29.98 139.3-30.71 138.2-31.01 137.1-31.3 136.12-31.3L136.12-31.3Q134.22-31.3 132.97-31.18 131.73-31.05 130.8-30.83 129.87-30.62 129.14-30.22 128.41-29.83 127.58-29.35L127.58-29.35 125.87-32.96Q126.75-33.74 128.04-34.38 129.34-35.01 130.73-35.4 132.12-35.79 133.49-36.01 134.85-36.23 136.03-36.23L136.03-36.23Q139.2-36.23 141.47-35.21 143.74-34.18 145.2-32.59 146.67-31.01 147.38-29.05 148.09-27.1 148.09-25.29ZM156.48 0L156.48-35.99 162.44-35.99 172.11-13.77 172.11-4.74 170.54-4.74 162.44-24.76 162.44 0 156.48 0ZM174.11-13.67L183.78-35.99 189.73-35.99 189.73 0 183.78 0 183.78-24.76 175.72-4.74 174.11-4.74 174.11-13.67ZM211.22-23.19L211.22-27.78Q213.85-27.54 215.98-26.37 218.1-25.2 219.61-23.34 221.13-21.48 221.93-19.09 222.74-16.7 222.74-14.11L222.74-14.11Q222.74-12.94 222.59-11.77L222.59-11.77 205.84-11.77 205.84-16.06 217.12-16.06Q217.12-17.33 216.71-18.51 216.29-19.68 215.49-20.68 214.68-21.68 213.61-22.36 212.53-23.05 211.22-23.19L211.22-23.19ZM211.02-4.59L211.02-4.59Q211.56-4.59 212.36-4.71 213.17-4.83 214.07-5.15 214.98-5.47 215.88-5.96 216.78-6.45 217.47-7.13L217.47-7.13 219.61-3.86Q218-1.86 215.85-0.83 213.71 0.2 210.39 0.2L210.39 0.2Q207.7 0.2 205.36-0.9 203.01-2 201.35-3.91 199.69-5.81 198.72-8.35 197.74-10.89 197.74-13.82L197.74-13.82Q197.74-16.6 198.64-19.09 199.55-21.58 201.11-23.46 202.67-25.34 204.75-26.51 206.82-27.69 209.21-27.83L209.21-27.83 209.21-23.14Q207.41-22.8 206.24-21.68 205.06-20.56 204.4-19.12 203.74-17.68 203.48-16.16 203.21-14.65 203.21-13.57L203.21-13.57Q203.21-11.67 203.67-10.03 204.14-8.4 205.11-7.2 206.09-6.01 207.53-5.3 208.97-4.59 211.02-4.59Z" opacity="1" transform="matrix(1,0,0,1,0,0)" fill="#ffffff" class="wordmark-text-0" data-fill-palette-color="primary" id="text-0"></path></svg></g></svg></g><g transform="matrix(1,0,0,1,0,85.58633391194091)"><svg viewBox="0 0 232.209792 16.4825687766463" height="16.4825687766463" width="232.209792"><g transform="matrix(1,0,0,1,0,0)"><svg width="232.209792" viewBox="3.9 -36.35 662.78 47.05" height="16.4825687766463" data-palette-color="#f2cebe"><path d="M20 0L3.9 0 3.9-35.8 18.45-35.8Q23.45-35.8 26.2-33.3L26.2-33.3Q29.05-30.7 29.05-26.7L29.05-26.7Q29.05-21.2 24.05-18.9L24.05-18.9Q30.6-16.4 30.6-10.2L30.6-10.2Q30.6-5.9 27.85-3L27.85-3Q25 0 20 0L20 0ZM8.45-31.75L8.45-20.4 17.3-20.4Q20.8-20.4 22.5-21.65L22.5-21.65Q24.45-23.1 24.45-26.05L24.45-26.05Q24.45-29 22.5-30.5L22.5-30.5Q20.8-31.75 17.3-31.75L17.3-31.75 8.45-31.75ZM8.45-16.35L8.45-4.05 19.6-4.05Q22.65-4.05 24.35-5.68 26.05-7.3 26.05-10.2L26.05-10.2Q26.05-13.1 24.35-14.73 22.65-16.35 19.6-16.35L19.6-16.35 8.45-16.35ZM57.9-11.8L57.9-11.65 38.95-11.65Q39-8.35 40.35-6.4L40.35-6.4Q42.5-3.25 46.55-3.25L46.55-3.25Q51.55-3.25 53.3-8L53.3-8 57.4-8Q56.6-3.95 53.7-1.7 50.8 0.55 46.4 0.55L46.4 0.55Q40.55 0.55 37.45-3.45L37.45-3.45Q34.7-6.95 34.7-12.7L34.7-12.7Q34.7-19.35 38.3-23.05L38.3-23.05Q41.45-26.25 46.45-26.25L46.45-26.25Q50.1-26.25 52.87-24.5 55.65-22.75 56.85-19.7L56.85-19.7Q57.9-17.1 57.9-11.8L57.9-11.8ZM39.1-15L53.5-15Q53.5-18.35 51.52-20.43 49.55-22.5 46.45-22.5L46.45-22.5Q43.3-22.5 41.32-20.48 39.35-18.45 39.1-15L39.1-15ZM77.49-25.7L82.74-25.7 82.74-22.4 77.49-22.4 77.49-5.3Q77.49-4.4 78.12-3.78 78.74-3.15 79.74-3.15L79.74-3.15Q80.69-3.15 82.64-3.6L82.64-3.6 83.09 0Q79.99 0.55 78.39 0.55L78.39 0.55Q73.44 0.55 73.44-3.5L73.44-3.5 73.44-22.4 69.94-22.4 69.94-25.7 73.44-25.7 73.44-30.95 77.49-32.8 77.49-25.7ZM87.54 0L87.54-35.8 91.59-35.8 91.59-22.1Q93.44-24.4 95.29-25.33 97.14-26.25 99.89-26.25L99.89-26.25Q103.64-26.25 105.79-24.38 107.94-22.5 107.94-19.25L107.94-19.25 107.94 0 103.89 0 103.89-17.6Q103.89-20.3 102.24-21.55L102.24-21.55Q100.69-22.7 98.59-22.7L98.59-22.7Q95.44-22.7 93.52-20.35 91.59-18 91.59-14.1L91.59-14.1 91.59 0 87.54 0ZM136.54-11.8L136.54-11.65 117.59-11.65Q117.64-8.35 118.99-6.4L118.99-6.4Q121.14-3.25 125.19-3.25L125.19-3.25Q130.19-3.25 131.94-8L131.94-8 136.04-8Q135.24-3.95 132.34-1.7 129.44 0.55 125.04 0.55L125.04 0.55Q119.19 0.55 116.09-3.45L116.09-3.45Q113.34-6.95 113.34-12.7L113.34-12.7Q113.34-19.35 116.94-23.05L116.94-23.05Q120.09-26.25 125.09-26.25L125.09-26.25Q128.74-26.25 131.51-24.5 134.29-22.75 135.49-19.7L135.49-19.7Q136.54-17.1 136.54-11.8L136.54-11.8ZM117.74-15L132.14-15Q132.14-18.35 130.16-20.43 128.19-22.5 125.09-22.5L125.09-22.5Q121.94-22.5 119.96-20.48 117.99-18.45 117.74-15L117.74-15ZM180.38-24.85L180.38-24.85 175.68-24.85Q174.93-28.45 173.08-30.1L173.08-30.1Q170.68-32.3 166.08-32.3L166.08-32.3Q160.48-32.3 157.43-27.9L157.43-27.9Q154.78-24.05 154.78-17.8L154.78-17.8Q154.78-10.75 158.33-6.85L158.33-6.85Q161.48-3.5 166.43-3.5L166.43-3.5Q172.48-3.5 174.78-7.95L174.78-7.95Q175.83-10 176.43-13.4L176.43-13.4 181.13-13.4Q179.48 0.55 166.48 0.55L166.48 0.55Q159.48 0.55 155.43-3.55L155.43-3.55Q150.23-8.8 150.23-17.65L150.23-17.65Q150.23-26.25 155.23-31.8L155.23-31.8Q159.33-36.35 166.53-36.35L166.53-36.35Q178.23-36.35 180.38-24.85ZM186.78 0L186.78-35.8 190.83-35.8 190.83-22.1Q192.68-24.4 194.53-25.33 196.38-26.25 199.13-26.25L199.13-26.25Q202.88-26.25 205.03-24.38 207.18-22.5 207.18-19.25L207.18-19.25 207.18 0 203.13 0 203.13-17.6Q203.13-20.3 201.48-21.55L201.48-21.55Q199.93-22.7 197.83-22.7L197.83-22.7Q194.68-22.7 192.75-20.35 190.83-18 190.83-14.1L190.83-14.1 190.83 0 186.78 0ZM236.88-3.45L236.88-3.45 236.88-0.15Q235.18 0.45 234.23 0.45L234.23 0.45Q230.23 0.45 229.88-3.2L229.88-3.2Q227.13 0.55 221.13 0.55L221.13 0.55Q216.98 0.55 214.68-1.75L214.68-1.75Q212.68-3.75 212.68-6.9L212.68-6.9Q212.68-10.5 215.23-12.45L215.23-12.45Q216.68-13.55 221.28-14.6L221.28-14.6 229.68-16.5 229.73-18.65Q229.73-22.5 223.93-22.5L223.93-22.5Q218.38-22.5 217.98-18L217.98-18 213.83-18Q213.98-21.4 215.53-23.2L215.53-23.2Q218.18-26.25 224.13-26.25L224.13-26.25Q233.78-26.25 233.78-19.25L233.78-19.25 233.78-4.9Q233.78-3 235.43-3L235.43-3Q235.63-3 236.48-3.3L236.48-3.3Q236.78-3.4 236.88-3.45ZM229.73-8.65L229.73-13.15 223.13-11.45Q219.58-10.55 218.25-9.6 216.93-8.65 216.93-6.95L216.93-6.95Q216.93-3 222.03-3L222.03-3Q225.63-3 228.13-5.35L228.13-5.35Q229.73-6.8 229.73-8.65L229.73-8.65ZM241.38 0L241.38-25.7 245.18-25.7 245.18-21.35Q248.28-26.25 253.68-26.25L253.68-26.25Q257.43-26.25 259.63-24.38 261.82-22.5 261.82-19.35L261.82-19.35 261.82 0 257.78 0 257.78-17.7Q257.78-20 256.35-21.35 254.93-22.7 252.48-22.7L252.48-22.7Q249.28-22.7 247.38-20.35 245.48-18 245.48-14.1L245.48-14.1 245.48 0 241.38 0ZM285.42-21.85L285.42-25.7 289.22-25.7 289.22-4.2Q289.22 4.15 286.52 7.4L286.52 7.4Q283.82 10.7 277.67 10.7L277.67 10.7Q272.87 10.7 270.17 8.4L270.17 8.4Q267.77 6.35 267.47 2.95L267.47 2.95 271.67 2.95Q271.97 4.95 273.17 5.9L273.17 5.9Q274.92 7.25 277.87 7.25L277.87 7.25Q281.87 7.25 283.57 4.85L283.57 4.85Q285.02 2.8 285.02-2.15L285.02-2.15 285.02-3.8Q281.82 0.55 277.32 0.55L277.32 0.55Q272.92 0.55 269.87-2.75L269.87-2.75Q266.62-6.3 266.62-12.45L266.62-12.45Q266.62-19.05 270.02-22.95L270.02-22.95Q273.02-26.25 277.57-26.25L277.57-26.25Q282.47-26.25 285.42-21.85L285.42-21.85ZM278.02-22.5L278.02-22.5Q274.72-22.5 272.8-19.88 270.87-17.25 270.87-12.7L270.87-12.7Q270.87-7.95 273.07-5.45L273.07-5.45Q274.92-3.25 278.07-3.25L278.07-3.25Q281.37-3.25 283.2-5.75 285.02-8.25 285.02-12.7L285.02-12.7Q285.02-17.6 282.92-20.2L282.92-20.2Q281.07-22.5 278.02-22.5ZM317.67-11.8L317.67-11.65 298.72-11.65Q298.77-8.35 300.12-6.4L300.12-6.4Q302.27-3.25 306.32-3.25L306.32-3.25Q311.32-3.25 313.07-8L313.07-8 317.17-8Q316.37-3.95 313.47-1.7 310.57 0.55 306.17 0.55L306.17 0.55Q300.32 0.55 297.22-3.45L297.22-3.45Q294.47-6.95 294.47-12.7L294.47-12.7Q294.47-19.35 298.07-23.05L298.07-23.05Q301.22-26.25 306.22-26.25L306.22-26.25Q309.87-26.25 312.65-24.5 315.42-22.75 316.62-19.7L316.62-19.7Q317.67-17.1 317.67-11.8L317.67-11.8ZM298.87-15L313.27-15Q313.27-18.35 311.3-20.43 309.32-22.5 306.22-22.5L306.22-22.5Q303.07-22.5 301.1-20.48 299.12-18.45 298.87-15L298.87-15ZM324.97 0.2L324.97 0.2Q324.97 0.2 324.92 0.25L324.92 0.25 324.87 0.25Q323.87 0.25 323.19-0.43 322.52-1.1 322.47-2.1L322.47-2.1Q322.47-2.85 322.82-3.5L322.82-3.5Q323.47-4.7 324.92-4.7L324.92-4.7Q326.17-4.7 326.97-3.7 327.77-2.7 327.77-1.1L327.77-1.1Q327.77 2.55 324.47 6.35L324.47 6.35 323.52 6.35 322.32 5.4Q323.37 4.05 324.17 2.35L324.17 2.35Q324.72 1.3 324.97 0.2ZM359.36-18.85L374.31-18.85 374.31 0 371.41 0 370.26-5.05Q365.16 0.55 358.06 0.55L358.06 0.55Q350.26 0.55 345.66-5.2L345.66-5.2Q341.66-10.25 341.66-17.8L341.66-17.8Q341.66-27.65 348.11-32.95L348.11-32.95Q352.31-36.35 358.86-36.35L358.86-36.35Q366.61-36.35 370.76-31.65L370.76-31.65Q373.01-29.1 373.81-25.05L373.81-25.05 369.16-25.05Q368.41-28.45 365.66-30.38 362.91-32.3 358.76-32.3L358.76-32.3Q352.71-32.3 349.21-27.9L349.21-27.9Q346.21-24.05 346.21-18.05L346.21-18.05Q346.21-11.05 350.01-7L350.01-7Q353.31-3.5 359.06-3.5L359.06-3.5Q364.26-3.5 367.46-6.9L367.46-6.9Q370.26-9.9 370.26-14.2L370.26-14.2 370.26-14.8 359.36-14.8 359.36-18.85ZM380.96-25.7L385.01-25.7 385.01 0 380.96 0 380.96-25.7ZM383.06-35.75L383.06-35.75Q384.11-35.75 384.84-35.02 385.56-34.3 385.56-33.3L385.56-33.3Q385.56-32.25 384.84-31.53 384.11-30.8 383.06-30.8L383.06-30.8Q382.06-30.8 381.34-31.53 380.61-32.25 380.61-33.3L380.61-33.3Q380.61-34.3 381.34-35.02 382.06-35.75 383.06-35.75ZM412.46-25.7L402.61 0 398.16 0 389.11-25.7 393.76-25.7 400.56-4.9 407.86-25.7 412.46-25.7ZM438.31-11.8L438.31-11.65 419.36-11.65Q419.41-8.35 420.76-6.4L420.76-6.4Q422.91-3.25 426.96-3.25L426.96-3.25Q431.96-3.25 433.71-8L433.71-8 437.81-8Q437.01-3.95 434.11-1.7 431.21 0.55 426.81 0.55L426.81 0.55Q420.96 0.55 417.86-3.45L417.86-3.45Q415.11-6.95 415.11-12.7L415.11-12.7Q415.11-19.35 418.71-23.05L418.71-23.05Q421.86-26.25 426.86-26.25L426.86-26.25Q430.51-26.25 433.28-24.5 436.06-22.75 437.26-19.7L437.26-19.7Q438.31-17.1 438.31-11.8L438.31-11.8ZM419.51-15L433.91-15Q433.91-18.35 431.93-20.43 429.96-22.5 426.86-22.5L426.86-22.5Q423.71-22.5 421.73-20.48 419.76-18.45 419.51-15L419.51-15ZM484.4-25.7L476.85 0 472.2 0 466.95-20.2 462 0 457.4 0 449.95-25.7 454.45-25.7 459.75-5.7 464.65-25.7 469.65-25.7 474.7-5.7 479.8-25.7 484.4-25.7ZM488.35-25.7L492.4-25.7 492.4 0 488.35 0 488.35-25.7ZM490.45-35.75L490.45-35.75Q491.5-35.75 492.22-35.02 492.95-34.3 492.95-33.3L492.95-33.3Q492.95-32.25 492.22-31.53 491.5-30.8 490.45-30.8L490.45-30.8Q489.45-30.8 488.72-31.53 488-32.25 488-33.3L488-33.3Q488-34.3 488.72-35.02 489.45-35.75 490.45-35.75ZM504.25-25.7L509.5-25.7 509.5-22.4 504.25-22.4 504.25-5.3Q504.25-4.4 504.87-3.78 505.5-3.15 506.5-3.15L506.5-3.15Q507.44-3.15 509.39-3.6L509.39-3.6 509.85 0Q506.75 0.55 505.14 0.55L505.14 0.55Q500.19 0.55 500.19-3.5L500.19-3.5 500.19-22.4 496.69-22.4 496.69-25.7 500.19-25.7 500.19-30.95 504.25-32.8 504.25-25.7ZM514.29 0L514.29-35.8 518.34-35.8 518.34-22.1Q520.19-24.4 522.04-25.33 523.89-26.25 526.64-26.25L526.64-26.25Q530.39-26.25 532.54-24.38 534.69-22.5 534.69-19.25L534.69-19.25 534.69 0 530.64 0 530.64-17.6Q530.64-20.3 528.99-21.55L528.99-21.55Q527.44-22.7 525.34-22.7L525.34-22.7Q522.19-22.7 520.27-20.35 518.34-18 518.34-14.1L518.34-14.1 518.34 0 514.29 0ZM575.79-16.3L556.29-16.3 556.29-4.05 577.39-4.05 577.39 0 551.74 0 551.74-35.8 576.54-35.8 576.54-31.75 556.29-31.75 556.29-20.35 575.79-20.35 575.79-16.3ZM606.33-3.45L606.33-3.45 606.33-0.15Q604.63 0.45 603.68 0.45L603.68 0.45Q599.68 0.45 599.33-3.2L599.33-3.2Q596.58 0.55 590.58 0.55L590.58 0.55Q586.43 0.55 584.13-1.75L584.13-1.75Q582.13-3.75 582.13-6.9L582.13-6.9Q582.13-10.5 584.68-12.45L584.68-12.45Q586.13-13.55 590.73-14.6L590.73-14.6 599.13-16.5 599.18-18.65Q599.18-22.5 593.38-22.5L593.38-22.5Q587.83-22.5 587.43-18L587.43-18 583.28-18Q583.43-21.4 584.98-23.2L584.98-23.2Q587.63-26.25 593.58-26.25L593.58-26.25Q603.23-26.25 603.23-19.25L603.23-19.25 603.23-4.9Q603.23-3 604.88-3L604.88-3Q605.08-3 605.93-3.3L605.93-3.3Q606.23-3.4 606.33-3.45ZM599.18-8.65L599.18-13.15 592.58-11.45Q589.03-10.55 587.71-9.6 586.38-8.65 586.38-6.95L586.38-6.95Q586.38-3 591.48-3L591.48-3Q595.08-3 597.58-5.35L597.58-5.35Q599.18-6.8 599.18-8.65L599.18-8.65ZM629.08-18.65L629.08-18.65 624.58-18.65Q624.38-22.5 619.43-22.5L619.43-22.5Q616.88-22.5 615.41-21.53 613.93-20.55 613.93-18.9L613.93-18.9Q613.93-16.4 618.68-15.3L618.68-15.3 622.63-14.4Q626.48-13.5 628.18-11.85 629.88-10.2 629.88-7.35L629.88-7.35Q629.88-3.7 627.03-1.58 624.18 0.55 619.33 0.55L619.33 0.55Q614.03 0.55 611.28-1.95L611.28-1.95Q608.98-4 608.83-7.4L608.83-7.4 613.48-7.4Q613.88-5.65 614.58-4.85L614.58-4.85Q615.93-3.25 619.63-3.25L619.63-3.25Q622.38-3.25 624.01-4.28 625.63-5.3 625.63-7L625.63-7Q625.63-9.55 621.68-10.5L621.68-10.5 617.83-11.4Q613.43-12.45 611.68-13.9L611.68-13.9Q609.68-15.55 609.68-18.65L609.68-18.65Q609.68-22.15 612.36-24.2 615.03-26.25 619.53-26.25L619.53-26.25Q624.23-26.25 626.83-23.9L626.83-23.9Q629.08-21.85 629.08-18.65ZM657.08-11.8L657.08-11.65 638.13-11.65Q638.18-8.35 639.53-6.4L639.53-6.4Q641.68-3.25 645.73-3.25L645.73-3.25Q650.73-3.25 652.48-8L652.48-8 656.58-8Q655.78-3.95 652.88-1.7 649.98 0.55 645.58 0.55L645.58 0.55Q639.73 0.55 636.63-3.45L636.63-3.45Q633.88-6.95 633.88-12.7L633.88-12.7Q633.88-19.35 637.48-23.05L637.48-23.05Q640.63-26.25 645.63-26.25L645.63-26.25Q649.28-26.25 652.05-24.5 654.83-22.75 656.03-19.7L656.03-19.7Q657.08-17.1 657.08-11.8L657.08-11.8ZM638.28-15L652.68-15Q652.68-18.35 650.7-20.43 648.73-22.5 645.63-22.5L645.63-22.5Q642.48-22.5 640.5-20.48 638.53-18.45 638.28-15L638.28-15ZM664.23-4.65L664.23-4.65Q665.28-4.65 665.98-3.95 666.68-3.25 666.68-2.2L666.68-2.2Q666.68-1.2 665.98-0.48 665.28 0.25 664.23 0.25L664.23 0.25Q663.23 0.25 662.5-0.48 661.78-1.2 661.78-2.2L661.78-2.2Q661.78-3.25 662.5-3.95 663.23-4.65 664.23-4.65Z" opacity="1" transform="matrix(1,0,0,1,0,0)" fill="#ffffff" class="slogan-text-1" data-fill-palette-color="secondary" id="text-1"></path></svg></g></svg></g></svg></g></svg></g><g transform="matrix(1,0,0,1,0,0.2551722567214654)"><svg viewBox="0 0 159.09736158731607 102.0689026885872" height="102.0689026885872" width="159.09736158731607"><g><svg xmlns="http://www.w3.org/2000/svg" xmlns:xlink="http://www.w3.org/1999/xlink" version="1.1" x="0" y="0" viewBox="2.953 19.817 94.094 60.36600000000001" enable-background="new 0 0 100 100" xml:space="preserve" height="102.0689026885872" width="159.09736158731607" class="icon-icon-0" data-fill-palette-color="accent" id="icon-0"><polygon points="34.318,69.084 5.173,54.513 2.953,55.621 34.318,71.304 97.047,39.939 94.827,38.829 " fill="#ffffff" data-fill-palette-color="accent"></polygon><polygon points="34.318,73.523 5.173,58.952 2.953,60.061 34.318,75.743 97.047,44.379 94.827,43.269 " fill="#ffffff" data-fill-palette-color="accent"></polygon><polygon points="34.318,77.963 5.173,63.392 2.953,64.501 34.318,80.183 97.047,48.818 94.827,47.707 " fill="#ffffff" data-fill-palette-color="accent"></polygon><path d="M65.683 19.817L2.953 51.182 34.318 66.864 97.047 35.5zM57.84 47.262C53.513 49.427 46.491 49.427 42.16 47.262 37.828 45.096 37.828 41.585 42.16 39.42 46.489 37.256 53.511 37.256 57.84 39.42 62.172 41.585 62.172 45.096 57.84 47.262" fill="#ffffff" data-fill-palette-color="accent"></path></svg></g></svg></g></svg></g><defs></defs></svg><rect width="395.5199999999999" height="68.35465387908009" fill="none" stroke="none" visibility="hidden"></rect></g></svg></g></svg>